<?xml version="1.0" encoding="UTF-8" standalone="no"?>
<svg
   xmlns:dc="http://purl.org/dc/elements/1.1/"
   xmlns:cc="http://creativecommons.org/ns#"
   xmlns:rdf="http://www.w3.org/1999/02/22-rdf-syntax-ns#"
   xmlns:svg="http://www.w3.org/2000/svg"
   xmlns="http://www.w3.org/2000/svg"
   xmlns:sodipodi="http://sodipodi.sourceforge.net/DTD/sodipodi-0.dtd"
   xmlns:inkscape="http://www.inkscape.org/namespaces/inkscape"
   viewBox="0 0 700 700"
   version="1.1"
   id="svg26"
   sodipodi:docname="google-cloud-logo.svg"
   width="4000"
   height="4000"
   inkscape:version="0.92.3 (2405546, 2018-03-11)"
   inkscape:export-filename="C:\Users\alex\sites\google-cloud-logo-0.png"
   inkscape:export-xdpi="561.73712"
   inkscape:export-ydpi="561.73712">
  <metadata
     id="metadata30">
    <rdf:RDF>
      <cc:Work
         rdf:about="">
        <dc:format>image/svg+xml</dc:format>
        <dc:type
           rdf:resource="http://purl.org/dc/dcmitype/StillImage" />
        <dc:title></dc:title>
      </cc:Work>
    </rdf:RDF>
  </metadata>
  <sodipodi:namedview
     pagecolor="#ffffff"
     bordercolor="#666666"
     borderopacity="1"
     objecttolerance="10"
     gridtolerance="10"
     guidetolerance="10"
     inkscape:pageopacity="0"
     inkscape:pageshadow="2"
     inkscape:window-width="1600"
     inkscape:window-height="838"
     id="namedview28"
     showgrid="false"
     inkscape:zoom="0.4004334"
     inkscape:cx="-10.99123"
     inkscape:cy="183.67446"
     inkscape:window-x="-8"
     inkscape:window-y="-8"
     inkscape:window-maximized="1"
     inkscape:current-layer="svg26" />
  <defs
     id="defs4">
    <style
       id="style2">.cls-1{fill:#ea4335;}.cls-2{fill:#4285f4;}.cls-3{fill:#34a853;}.cls-4{fill:#fbbc05;}.cls-5{fill:#5f6368;}</style>
  </defs>
  <path
     class="cls-1"
     d="m 104.78441,797.37592 h 3.6257 l 10.33324,-10.33324 0.5076,-4.38709 a 46.445192,46.445192 0 0 0 -75.559551,22.66061 5.6198319,5.6198319 0 0 1 3.625698,-0.21754 l 20.666479,-3.40816 c 0,0 1.051452,-1.74033 1.595307,-1.63156 a 25.778713,25.778713 0 0 1 35.278037,-2.68302 z"
     id="path6"
     inkscape:connector-curvature="0"
     style="fill:#ea4335;stroke-width:3.62569809"
     inkscape:export-filename="C:\Users\alex\sites\google-cloud-logo-4.png"
     inkscape:export-xdpi="104.7881"
     inkscape:export-ydpi="104.7881" />
  <path
     class="cls-2"
     d="m 133.46368,805.3162 a 46.553963,46.553963 0 0 0 -14.03145,-22.62436 l -14.50279,14.5028 a 25.778713,25.778713 0 0 1 9.46307,20.44893 v 2.57425 a 12.907485,12.907485 0 1 1 0,25.81497 H 88.577541 l -2.574246,2.6105 v 15.48173 l 2.574246,2.57425 h 25.814969 a 33.573964,33.573964 0 0 0 19.07117,-61.38307 z"
     id="path8"
     inkscape:connector-curvature="0"
     style="fill:#4285f4;stroke-width:3.62569809"
     inkscape:export-filename="C:\Users\alex\sites\google-cloud-logo-4.png"
     inkscape:export-xdpi="104.7881"
     inkscape:export-ydpi="104.7881" />
  <path
     class="cls-3"
     d="m 62.726314,866.55424 h 25.81497 v -20.66648 h -25.81497 a 12.834971,12.834971 0 0 1 -5.329776,-1.16022 l -3.625698,1.12396 -10.405754,10.33324 -0.906424,3.6257 a 33.392679,33.392679 0 0 0 20.267652,6.7438 z"
     id="path10"
     inkscape:connector-curvature="0"
     style="fill:#34a853;stroke-width:3.62569809"
     inkscape:export-filename="C:\Users\alex\sites\google-cloud-logo-4.png"
     inkscape:export-xdpi="104.7881"
     inkscape:export-ydpi="104.7881" />
  <path
     class="cls-4"
     d="M 62.726314,799.51508 A 33.573964,33.573964 0 0 0 42.458662,859.70167 L 57.432795,844.72754 A 12.907485,12.907485 0 1 1 74.509832,827.6505 L 89.483965,812.67637 A 33.537707,33.537707 0 0 0 62.726314,799.51508 Z"
     id="path12"
     inkscape:connector-curvature="0"
     style="fill:#fbbc05;stroke-width:3.62569809"
     inkscape:export-filename="C:\Users\alex\sites\google-cloud-logo-4.png"
     inkscape:export-xdpi="104.7881"
     inkscape:export-ydpi="104.7881" />
  <path
     class="cls-5"
     d="m 216.96351,852.12396 a 33.030109,33.030109 0 0 1 -23.92961,-9.82564 31.906143,31.906143 0 0 1 -10.04318,-23.63955 31.9424,31.9424 0 0 1 10.04318,-23.63955 33.030109,33.030109 0 0 1 23.92961,-10.00693 32.05117,32.05117 0 0 1 22.95067,9.24553 l -6.45375,6.56251 a 23.240724,23.240724 0 0 0 -16.49692,-6.52625 22.986925,22.986925 0 0 0 -17.04078,7.25139 23.675808,23.675808 0 0 0 -6.9976,17.22207 23.675808,23.675808 0 0 0 6.9976,17.00452 24.328434,24.328434 0 0 0 33.93653,0.39883 19.288713,19.288713 0 0 0 4.96721,-11.27592 h -21.75419 v -9.28179 h 30.78218 a 29.440668,29.440668 0 0 1 0.36257,5.65609 29.005584,29.005584 0 0 1 -7.94028,21.39162 30.85469,30.85469 0 0 1 -23.31324,9.46307 z m 71.57128,-6.16369 a 22.189272,22.189272 0 0 1 -30.70966,0 20.666479,20.666479 0 0 1 -6.27246,-15.40921 20.702736,20.702736 0 0 1 6.27246,-15.40922 22.225529,22.225529 0 0 1 30.70966,0 20.702736,20.702736 0 0 1 6.27245,15.40922 20.666479,20.666479 0 0 1 -6.30871,15.40921 z m -23.92961,-6.05491 a 11.747262,11.747262 0 0 0 17.14955,0 12.907485,12.907485 0 0 0 3.6257,-9.3543 12.943742,12.943742 0 0 0 -3.6257,-9.39056 11.928546,11.928546 0 0 0 -17.22206,0 12.943742,12.943742 0 0 0 -3.6257,9.39056 12.907485,12.907485 0 0 0 3.66195,9.3543 z m 71.1362,6.05491 a 22.189272,22.189272 0 0 1 -30.70967,0 20.666479,20.666479 0 0 1 -6.27245,-15.40921 20.702736,20.702736 0 0 1 6.27245,-15.40922 22.189272,22.189272 0 0 1 30.70967,0 20.702736,20.702736 0 0 1 6.27245,15.40922 20.666479,20.666479 0 0 1 -6.27245,15.40921 z m -23.92961,-6.05491 a 11.747262,11.747262 0 0 0 17.14955,0 12.907485,12.907485 0 0 0 3.6257,-9.3543 12.943742,12.943742 0 0 0 -3.6257,-9.39056 11.928546,11.928546 0 0 0 -17.22207,0 12.943742,12.943742 0 0 0 -3.62569,9.39056 12.907485,12.907485 0 0 0 3.66195,9.3543 z m 54.96558,31.57983 a 18.998658,18.998658 0 0 1 -12.07357,-3.84324 22.225529,22.225529 0 0 1 -7.03386,-8.91922 l 8.26659,-3.44441 a 13.92268,13.92268 0 0 0 4.09704,5.40229 10.333239,10.333239 0 0 0 6.78006,2.28419 10.877094,10.877094 0 0 0 8.44787,-3.26313 13.233798,13.233798 0 0 0 3.00933,-9.42682 v -3.1181 h -0.32631 a 13.813909,13.813909 0 0 1 -11.34843,4.8947 19.68754,19.68754 0 0 1 -14.5028,-6.30872 20.847764,20.847764 0 0 1 -6.19994,-15.19167 21.065305,21.065305 0 0 1 6.19994,-15.30045 19.651283,19.651283 0 0 1 14.5028,-6.34497 15.590501,15.590501 0 0 1 6.67128,1.48654 13.415083,13.415083 0 0 1 4.71341,3.44441 h 0.32631 v -3.44441 h 8.99173 v 38.61368 a 22.515585,22.515585 0 0 1 -5.76486,16.8595 20.303909,20.303909 0 0 1 -14.75659,5.61983 z m 0.65263,-27.84536 a 10.550781,10.550781 0 0 0 8.19407,-3.6257 13.415083,13.415083 0 0 0 3.29939,-9.28179 13.705139,13.705139 0 0 0 -3.29939,-9.46307 10.514524,10.514524 0 0 0 -8.19407,-3.6257 11.203407,11.203407 0 0 0 -8.48414,3.6257 13.233798,13.233798 0 0 0 -3.6257,9.39056 12.979999,12.979999 0 0 0 3.6257,9.28179 11.239664,11.239664 0 0 0 8.48414,3.69821 z m 35.85815,-56.19832 v 63.3772 h -9.46307 v -63.3772 z m 25.96,64.68245 a 20.593965,20.593965 0 0 1 -15.26419,-6.19994 20.992792,20.992792 0 0 1 -6.12743,-15.37296 21.24659,21.24659 0 0 1 5.90989,-15.51799 19.433741,19.433741 0 0 1 14.50279,-6.05492 18.309775,18.309775 0 0 1 7.2514,1.41403 17.077038,17.077038 0 0 1 5.54731,3.62569 25.379886,25.379886 0 0 1 3.6257,4.3871 25.923741,25.923741 0 0 1 2.13916,4.24207 l 0.97894,2.46547 -29.00558,11.92855 a 10.877094,10.877094 0 0 0 10.44201,6.52625 12.36363,12.36363 0 0 0 10.62329,-5.9824 l 7.2514,4.89469 a 23.89335,23.89335 0 0 1 -6.96134,6.59877 19.723797,19.723797 0 0 1 -10.91335,3.04559 z m -12.10983,-22.22553 19.28871,-8.01279 a 6.6712844,6.6712844 0 0 0 -3.00933,-3.29939 9.8256416,9.8256416 0 0 0 -4.96721,-1.26899 11.203407,11.203407 0 0 0 -7.79525,3.44441 11.493463,11.493463 0 0 0 -3.51692,9.13676 z"
     id="path14"
     inkscape:connector-curvature="0"
     style="fill:#5f6368;stroke-width:3.62569809"
     inkscape:export-filename="C:\Users\alex\sites\google-cloud-logo-4.png"
     inkscape:export-xdpi="104.7881"
     inkscape:export-ydpi="104.7881" />
  <path
     class="cls-5"
     d="m 497.37499,852.12396 a 29.875752,29.875752 0 0 1 -30.38335,-30.56463 29.875752,29.875752 0 0 1 30.38335,-30.56464 27.047707,27.047707 0 0 1 21.50039,9.57185 l -5.221,5.07597 a 19.723797,19.723797 0 0 0 -16.24313,-7.43268 22.153015,22.153015 0 0 0 -16.13436,6.45374 22.624356,22.624356 0 0 0 -6.56251,16.89576 22.624356,22.624356 0 0 0 6.56251,16.89575 22.153015,22.153015 0 0 0 16.13436,6.45374 23.059439,23.059439 0 0 0 18.12849,-8.48413 l 5.22101,5.221 a 28.497986,28.497986 0 0 1 -10.04319,7.65023 30.745919,30.745919 0 0 1 -13.34257,2.82804 z"
     id="path16"
     inkscape:connector-curvature="0"
     style="fill:#5f6368;stroke-width:3.62569809"
     inkscape:export-filename="C:\Users\alex\sites\google-cloud-logo-4.png"
     inkscape:export-xdpi="104.7881"
     inkscape:export-ydpi="104.7881" />
  <path
     class="cls-5"
     d="m 534.7922,850.81871 h -7.5052 v -58.55502 h 7.5052 z"
     id="path18"
     inkscape:connector-curvature="0"
     style="fill:#5f6368;stroke-width:3.62569809"
     inkscape:export-filename="C:\Users\alex\sites\google-cloud-logo-4.png"
     inkscape:export-xdpi="104.7881"
     inkscape:export-ydpi="104.7881" />
  <path
     class="cls-5"
     d="m 547.04706,815.57692 a 20.992792,20.992792 0 0 1 29.58569,0 21.210333,21.210333 0 0 1 5.80112,15.22794 21.210333,21.210333 0 0 1 -5.80112,15.22793 20.992792,20.992792 0 0 1 -29.58569,0 21.210333,21.210333 0 0 1 -5.80112,-15.22793 21.210333,21.210333 0 0 1 5.80112,-15.22794 z m 5.58357,25.74246 a 12.653686,12.653686 0 0 0 18.38229,0 14.502792,14.502792 0 0 0 3.8795,-10.51452 14.502792,14.502792 0 0 0 -3.8795,-10.51453 12.653686,12.653686 0 0 0 -18.38229,0 14.502792,14.502792 0 0 0 -3.8795,10.51453 14.502792,14.502792 0 0 0 3.91576,10.47826 z"
     id="path20"
     inkscape:connector-curvature="0"
     style="fill:#5f6368;stroke-width:3.62569809"
     inkscape:export-filename="C:\Users\alex\sites\google-cloud-logo-4.png"
     inkscape:export-xdpi="104.7881"
     inkscape:export-ydpi="104.7881" />
  <path
     class="cls-5"
     d="m 624.02063,850.81871 h -7.2514 v -5.54732 h -0.21754 a 13.958937,13.958937 0 0 1 -5.29352,5.00346 14.792848,14.792848 0 0 1 -7.43268,1.99414 14.103965,14.103965 0 0 1 -11.38469,-4.56838 18.12849,18.12849 0 0 1 -3.8795,-12.25486 V 810.791 h 7.50519 v 23.27698 q 0,11.20341 9.89816,11.20341 a 9.209273,9.209273 0 0 0 7.61396,-3.6257 13.668882,13.668882 0 0 0 2.93682,-8.66541 V 810.791 h 7.5052 z"
     id="path22"
     inkscape:connector-curvature="0"
     style="fill:#5f6368;stroke-width:3.62569809"
     inkscape:export-filename="C:\Users\alex\sites\google-cloud-logo-4.png"
     inkscape:export-xdpi="104.7881"
     inkscape:export-ydpi="104.7881" />
  <path
     class="cls-5"
     d="m 649.50928,852.12396 a 17.620892,17.620892 0 0 1 -13.41508,-6.12743 21.754188,21.754188 0 0 1 -5.61983,-15.19167 21.754188,21.754188 0 0 1 5.61983,-15.19168 17.620892,17.620892 0 0 1 13.41508,-6.12743 17.004524,17.004524 0 0 1 8.19408,1.95788 13.886423,13.886423 0 0 1 5.43855,4.89469 h 0.32631 l -0.32631,-5.54732 v -18.52731 h 7.50519 v 58.55502 h -7.25139 v -5.54732 h -0.32632 a 13.886423,13.886423 0 0 1 -5.43854,4.89469 17.004524,17.004524 0 0 1 -8.12157,1.95788 z m 1.23274,-6.85257 a 11.964803,11.964803 0 0 0 9.02799,-3.91575 14.684077,14.684077 0 0 0 3.6257,-10.55078 14.684077,14.684077 0 0 0 -3.6257,-10.55078 12.254859,12.254859 0 0 0 -18.12849,0 14.502792,14.502792 0 0 0 -3.6257,10.51452 14.502792,14.502792 0 0 0 3.6257,10.51452 11.964803,11.964803 0 0 0 9.1005,3.98827 z"
     id="path24"
     inkscape:connector-curvature="0"
     style="fill:#5f6368;stroke-width:3.62569809"
     inkscape:export-filename="C:\Users\alex\sites\google-cloud-logo-4.png"
     inkscape:export-xdpi="104.7881"
     inkscape:export-ydpi="104.7881" />
  <path
     class="cls-1"
     d="m 375.90687,230.02026 h 5.7254 l 16.31729,-16.31735 0.80157,-6.92771 a 73.342198,73.342198 0 0 0 -119.31701,35.78367 8.8743487,8.8743487 0 0 1 5.72541,-0.34354 l 32.63468,-5.38185 c 0,0 1.66036,-2.7482 2.51918,-2.57643 a 40.707497,40.707497 0 0 1 55.708,-4.23679 z"
     id="path6-0"
     inkscape:connector-curvature="0"
     style="fill:#ea4335;stroke-width:5.72538662"
     inkscape:export-filename="C:\Users\alex\sites\google-cloud-logo-6.png"
     inkscape:export-xdpi="357.98566"
     inkscape:export-ydpi="357.98566" />
  <path
     class="cls-2"
     d="m 421.19476,242.55887 a 73.513959,73.513959 0 0 0 -22.15735,-35.72642 l -22.9015,22.90154 a 40.707497,40.707497 0 0 1 14.94324,32.29118 v 4.06503 a 20.382383,20.382383 0 1 1 0,40.76476 h -40.76473 l -4.06506,4.12227 v 24.4474 l 4.06506,4.06502 h 40.76473 a 53.017078,53.017078 0 0 0 30.11561,-96.93078 z"
     id="path8-0"
     inkscape:connector-curvature="0"
     style="fill:#4285f4;stroke-width:5.72538662"
     inkscape:export-filename="C:\Users\alex\sites\google-cloud-logo-6.png"
     inkscape:export-xdpi="357.98566"
     inkscape:export-ydpi="357.98566" />
  <path
     class="cls-3"
     d="m 309.4924,339.26064 h 40.76473 v -32.6347 H 309.4924 a 20.267868,20.267868 0 0 1 -8.41629,-1.83212 l -5.72543,1.77485 -16.43183,16.31734 -1.43137,5.72541 a 52.730809,52.730809 0 0 0 32.00492,10.64922 z"
     id="path10-2"
     inkscape:connector-curvature="0"
     style="fill:#34a853;stroke-width:5.72538662"
     inkscape:export-filename="C:\Users\alex\sites\google-cloud-logo-6.png"
     inkscape:export-xdpi="357.98566"
     inkscape:export-ydpi="357.98566" />
  <path
     class="cls-4"
     d="m 309.4924,233.39823 a 53.017078,53.017078 0 0 0 -32.00492,95.04141 l 23.64588,-23.64582 a 20.382376,20.382376 0 1 1 26.96656,-26.96659 l 23.64585,-23.64585 A 52.959824,52.959824 0 0 0 309.4924,233.39823 Z"
     id="path12-3"
     inkscape:connector-curvature="0"
     style="fill:#fbbc05;stroke-width:5.72538662"
     inkscape:export-filename="C:\Users\alex\sites\google-cloud-logo-6.png"
     inkscape:export-xdpi="357.98566"
     inkscape:export-ydpi="357.98566" />
  <path
     class="cls-5"
     d="m 127.8521,491.07091 a 34.965106,34.965106 0 0 1 -25.33169,-10.40124 33.775297,33.775297 0 0 1 -10.631504,-25.02443 33.813677,33.813677 0 0 1 10.631504,-25.02444 34.965106,34.965106 0 0 1 25.33169,-10.59316 33.928816,33.928816 0 0 1 24.29494,9.78715 l -6.8319,6.94698 a 24.602231,24.602231 0 0 0 -17.46304,-6.90857 24.333564,24.333564 0 0 0 -18.03933,7.67618 25.062803,25.062803 0 0 0 -7.40752,18.23101 25.062803,25.062803 0 0 0 7.40752,18.00067 25.753662,25.753662 0 0 0 35.92462,0.4222 20.418701,20.418701 0 0 0 5.25836,-11.93648 h -23.02852 v -9.82556 h 32.58514 a 31.165385,31.165385 0 0 1 0.38413,5.98746 30.704812,30.704812 0 0 1 -8.40567,22.64479 32.662245,32.662245 0 0 1 -24.67873,10.01744 z m 75.76399,-6.52478 a 23.489184,23.489184 0 0 1 -32.50869,0 21.877179,21.877179 0 0 1 -6.64014,-16.31193 21.915562,21.915562 0 0 1 6.64014,-16.31193 23.527565,23.527565 0 0 1 32.50869,0 21.915562,21.915562 0 0 1 6.64014,16.31193 21.877179,21.877179 0 0 1 -6.67849,16.31193 z m -25.33148,-6.40963 a 12.435449,12.435449 0 0 0 18.15429,0 13.663641,13.663641 0 0 0 3.83788,-9.9023 13.702023,13.702023 0 0 0 -3.83788,-9.94067 12.627354,12.627354 0 0 0 -18.23113,0 13.702023,13.702023 0 0 0 -3.83805,9.94067 13.663641,13.663641 0 0 0 3.87638,9.9023 z m 75.30355,6.40963 a 23.489184,23.489184 0 0 1 -32.50887,0 21.877179,21.877179 0 0 1 -6.63954,-16.31193 21.915562,21.915562 0 0 1 6.63954,-16.31193 23.489184,23.489184 0 0 1 32.50887,0 21.915562,21.915562 0 0 1 6.6398,16.31193 21.877179,21.877179 0 0 1 -6.6398,16.31193 z m -25.33147,-6.40963 a 12.435449,12.435449 0 0 0 18.15413,0 13.663641,13.663641 0 0 0 3.83823,-9.9023 13.702023,13.702023 0 0 0 -3.83823,-9.94067 12.627354,12.627354 0 0 0 -18.23078,0 13.702023,13.702023 0 0 0 -3.83805,9.94067 13.663641,13.663641 0 0 0 3.87638,9.9023 z m 58.18565,33.42987 a 20.111653,20.111653 0 0 1 -12.78083,-4.06837 23.527565,23.527565 0 0 1 -7.44598,-9.44175 l 8.75078,-3.64617 a 14.73831,14.73831 0 0 0 4.33714,5.71874 10.938589,10.938589 0 0 0 7.17719,2.41801 11.514305,11.514305 0 0 0 8.94292,-3.45429 14.009071,14.009071 0 0 0 3.18568,-9.97907 v -3.30077 h -0.34564 a 14.623166,14.623166 0 0 1 -12.01326,5.18145 20.840893,20.840893 0 0 1 -15.35222,-6.6783 22.069082,22.069082 0 0 1 -6.56331,-16.08165 22.29937,22.29937 0 0 1 6.56331,-16.19678 20.802512,20.802512 0 0 1 15.35222,-6.7167 16.503836,16.503836 0 0 1 7.06205,1.57365 14.200975,14.200975 0 0 1 4.98991,3.64621 h 0.34525 v -3.64621 h 9.5185 v 40.87577 a 23.834609,23.834609 0 0 1 -6.10252,17.84718 21.493368,21.493368 0 0 1 -15.62119,5.94905 z m 0.69087,-29.47662 a 11.168875,11.168875 0 0 0 8.67414,-3.83808 14.200975,14.200975 0 0 0 3.49259,-9.82556 14.508024,14.508024 0 0 0 -3.49259,-10.01743 11.130494,11.130494 0 0 0 -8.67414,-3.83812 11.859734,11.859734 0 0 0 -8.98107,3.83812 14.009071,14.009071 0 0 0 -3.83806,9.94067 13.740403,13.740403 0 0 0 3.83806,9.82555 11.898115,11.898115 0 0 0 8.98107,3.91485 z m 37.95884,-59.49058 v 67.09002 h -10.0176 v -67.09002 z m 27.48082,68.47174 a 21.800416,21.800416 0 0 1 -16.15846,-6.56315 22.222607,22.222607 0 0 1 -6.48649,-16.27356 22.491274,22.491274 0 0 1 6.25621,-16.42706 20.572226,20.572226 0 0 1 15.35257,-6.40965 19.382412,19.382412 0 0 1 7.67611,1.49688 18.077458,18.077458 0 0 1 5.87225,3.83809 26.866713,26.866713 0 0 1 3.83804,4.6441 27.442425,27.442425 0 0 1 2.26448,4.4906 l 1.03653,2.6099 -30.70481,12.62736 a 11.514305,11.514305 0 0 0 11.05357,6.90857 13.087926,13.087926 0 0 0 11.24554,-6.33285 l 7.6763,5.18141 a 25.29309,25.29309 0 0 1 -7.36899,6.98535 20.879271,20.879271 0 0 1 -11.55285,3.22401 z m -12.81932,-23.52756 20.41878,-8.48219 a 7.062107,7.062107 0 0 0 -3.18566,-3.49269 10.401255,10.401255 0 0 0 -5.25819,-1.34333 11.859734,11.859734 0 0 0 -8.25202,3.64619 12.166782,12.166782 0 0 0 -3.72291,9.67202 z"
     id="path14-1"
     inkscape:connector-curvature="0"
     style="fill:#5f6368;fill-opacity:1;stroke-width:3.83810139"
     inkscape:export-filename="C:\Users\alex\sites\google-cloud-logo-3.png"
     inkscape:export-xdpi="267.78888"
     inkscape:export-ydpi="267.78888" />
  <path
     class="cls-5"
     d="m 424.69079,491.07091 a 31.625955,31.625955 0 0 1 -32.16324,-32.35519 31.625955,31.625955 0 0 1 32.16324,-32.35521 28.632235,28.632235 0 0 1 22.76006,10.13262 l -5.52696,5.37331 a 20.879271,20.879271 0 0 0 -17.19479,-7.86811 23.450801,23.450801 0 0 0 -17.07962,6.83183 23.949753,23.949753 0 0 0 -6.94672,17.88556 23.949753,23.949753 0 0 0 6.94672,17.88554 23.450801,23.450801 0 0 0 17.07962,6.83182 24.410326,24.410326 0 0 0 19.19045,-8.98114 l 5.52697,5.52685 a 30.167479,30.167479 0 0 1 -10.63147,8.09842 32.547099,32.547099 0 0 1 -14.12426,2.9937 z"
     id="path16-5"
     inkscape:connector-curvature="0"
     style="fill:#5f6368;fill-opacity:1;stroke-width:3.83810139"
     inkscape:export-filename="C:\Users\alex\sites\google-cloud-logo-3.png"
     inkscape:export-xdpi="267.78888"
     inkscape:export-ydpi="267.78888" />
  <path
     class="cls-5"
     d="m 464.30002,489.68919 h -7.94508 v -61.98533 h 7.94508 z"
     id="path18-5"
     inkscape:connector-curvature="0"
     style="fill:#5f6368;fill-opacity:1;stroke-width:3.83810139"
     inkscape:export-filename="C:\Users\alex\sites\google-cloud-logo-3.png"
     inkscape:export-xdpi="267.78888"
     inkscape:export-ydpi="267.78888" />
  <path
     class="cls-5"
     d="m 477.27299,452.38283 a 22.222607,22.222607 0 0 1 31.31885,0 22.452894,22.452894 0 0 1 6.14085,16.12004 22.452894,22.452894 0 0 1 -6.14085,16.12002 22.222607,22.222607 0 0 1 -31.31885,0 22.452894,22.452894 0 0 1 -6.14087,-16.12002 22.452894,22.452894 0 0 1 6.14087,-16.12004 z m 5.91027,27.25052 a 13.394974,13.394974 0 0 0 19.45927,0 15.352406,15.352406 0 0 0 4.10682,-11.13048 15.352406,15.352406 0 0 0 -4.10682,-11.1305 13.394974,13.394974 0 0 0 -19.45927,0 15.352406,15.352406 0 0 0 -4.10627,11.1305 15.352406,15.352406 0 0 0 4.14503,11.09211 z"
     id="path20-2"
     inkscape:connector-curvature="0"
     style="fill:#5f6368;fill-opacity:1;stroke-width:3.83810139"
     inkscape:export-filename="C:\Users\alex\sites\google-cloud-logo-3.png"
     inkscape:export-xdpi="267.78888"
     inkscape:export-ydpi="267.78888" />
  <path
     class="cls-5"
     d="m 558.75596,489.68919 h -7.67662 v -5.8723 h -0.22811 a 14.77669,14.77669 0 0 1 -5.60357,5.29658 15.659455,15.659455 0 0 1 -7.86819,2.11096 14.930215,14.930215 0 0 1 -12.05169,-4.83601 19.190507,19.190507 0 0 1 -4.10683,-12.97277 v -26.09908 h 7.94487 v 24.6406 q 0,11.85972 10.47827,11.85972 a 9.7487778,9.7487778 0 0 0 8.06002,-3.8381 14.469644,14.469644 0 0 0 3.10891,-9.17306 v -23.48916 h 7.94487 z"
     id="path22-1"
     inkscape:connector-curvature="0"
     style="fill:#5f6368;fill-opacity:1;stroke-width:3.83810139"
     inkscape:export-filename="C:\Users\alex\sites\google-cloud-logo-3.png"
     inkscape:export-xdpi="267.78888"
     inkscape:export-ydpi="267.78888" />
  <path
     class="cls-5"
     d="m 585.73768,491.07091 a 18.653174,18.653174 0 0 1 -14.20089,-6.48639 23.02861,23.02861 0 0 1 -5.94931,-16.08165 23.02861,23.02861 0 0 1 5.94931,-16.08165 18.653174,18.653174 0 0 1 14.20089,-6.48637 18.000696,18.000696 0 0 1 8.67427,2.07256 14.699928,14.699928 0 0 1 5.75692,5.18145 h 0.34491 l -0.34491,-5.87229 v -19.61271 h 7.94487 v 61.98533 h -7.67636 v -5.8723 h -0.34547 a 14.699928,14.699928 0 0 1 -5.75719,5.18145 18.000696,18.000696 0 0 1 -8.59704,2.07257 z m 1.3049,-7.25402 a 12.665735,12.665735 0 0 0 9.55676,-4.14514 15.544311,15.544311 0 0 0 3.83804,-11.16888 15.544311,15.544311 0 0 0 -3.83804,-11.16887 12.972782,12.972782 0 0 0 -19.19047,0 15.352406,15.352406 0 0 0 -3.83805,11.1305 15.352406,15.352406 0 0 0 3.83805,11.13048 12.665735,12.665735 0 0 0 9.63371,4.22191 z"
     id="path24-0"
     inkscape:connector-curvature="0"
     style="fill:#5f6368;fill-opacity:1;stroke-width:3.83810139"
     inkscape:export-filename="C:\Users\alex\sites\google-cloud-logo-3.png"
     inkscape:export-xdpi="267.78888"
     inkscape:export-ydpi="267.78888" />
</svg>
